<svg width="30" height="60" viewBox="0 0 30 60" fill="none" xmlns="http://www.w3.org/2000/svg">
<rect width="30" height="60" rx="8" fill="#CC3838"/>
<path d="M14 23.125C14 22.8266 14.1185 22.5405 14.3295 22.3295C14.5405 22.1185 14.8266 22 15.125 22C15.4234 22 15.7095 22.1185 15.9205 22.3295C16.1315 22.5405 16.25 22.8266 16.25 23.125V32.125C16.25 32.4234 16.1315 32.7095 15.9205 32.9205C15.7095 33.1315 15.4234 33.25 15.125 33.25C14.8266 33.25 14.5405 33.1315 14.3295 32.9205C14.1185 32.7095 14 32.4234 14 32.125V23.125ZM14 35.875C14 35.5766 14.1185 35.2905 14.3295 35.0795C14.5405 34.8685 14.8266 34.75 15.125 34.75C15.4234 34.75 15.7095 34.8685 15.9205 35.0795C16.1315 35.2905 16.25 35.5766 16.25 35.875C16.25 36.1734 16.1315 36.4595 15.9205 36.6705C15.7095 36.8815 15.4234 37 15.125 37C14.8266 37 14.5405 36.8815 14.3295 36.6705C14.1185 36.4595 14 36.1734 14 35.875Z" fill="white"/>
</svg>
