<svg width="30" height="16" viewBox="0 0 30 16" fill="none" xmlns="http://www.w3.org/2000/svg">
<rect width="30" height="16" rx="4" fill="#101317"/>
<path d="M11.5066 7.07926L11.5066 7.32809L11.5066 7.07926C11.3205 7.07926 11.1641 7.15426 11.0576 7.27811C10.9557 7.39674 10.9108 7.54651 10.9108 7.68698C10.9107 7.82745 10.9556 7.97724 11.0576 8.0959C11.164 8.21978 11.3205 8.29476 11.5066 8.29476L14.3292 8.29476H15.0447L17.0759 8.29476L17.8674 8.29476C18.0535 8.29476 18.2099 8.21976 18.3163 8.09591C18.4183 7.97728 18.4632 7.82751 18.4632 7.68704C18.4632 7.54657 18.4184 7.39678 18.3164 7.27812C18.2099 7.15424 18.0535 7.07926 17.8674 7.07926L17.8674 7.32801L17.8674 7.07926L15.0447 7.07926L14.3292 7.07926L14.3292 7.32926L14.3292 7.07926L12.2981 7.07926L11.5066 7.07926Z" fill="white" stroke="white" stroke-width="0.5"/>
</svg>
