<svg width="30" height="16" viewBox="0 0 30 16" fill="none" xmlns="http://www.w3.org/2000/svg">
<rect width="30" height="16" rx="4" fill="#101317"/>
<path d="M18.0503 8.12859C18.2317 8.12859 18.3845 8.05542 18.4886 7.93433C18.5882 7.81845 18.6319 7.67236 18.6319 7.53557C18.632 7.39877 18.5883 7.25266 18.4887 7.13675C18.3846 7.01563 18.2317 6.94248 18.0503 6.94248L15.5937 6.94248V6.21865L15.5937 5.24481V5.24481L15.5937 4.48585C15.5937 4.30446 15.5205 4.1516 15.3994 4.04753C15.2835 3.94795 15.1374 3.90422 15.0006 3.9042C14.8638 3.90418 14.7177 3.94787 14.6018 4.04747C14.4807 4.15155 14.4076 4.30445 14.4076 4.48585L14.4076 6.94248L12.7099 6.94248L12.7099 6.94248L11.9509 6.94248C11.7695 6.94248 11.6167 7.01565 11.5126 7.13674C11.413 7.25262 11.3693 7.3987 11.3693 7.5355C11.3693 7.6723 11.4129 7.81841 11.5125 7.93432C11.6166 8.05544 11.7695 8.12859 11.9509 8.12859L14.4076 8.12859L14.4076 9.82626V10.5852C14.4076 10.7666 14.4807 10.9195 14.6018 11.0235C14.7177 11.1231 14.8638 11.1669 15.0006 11.1669C15.1374 11.1669 15.2835 11.1232 15.3994 11.0236C15.5205 10.9195 15.5937 10.7666 15.5937 10.5852L15.5937 8.12859L17.2913 8.12859L18.0503 8.12859Z" fill="white" stroke="white" stroke-width="0.5"/>
</svg>
